# xmcd
#
# Track frame offsets:
#	150
#	15746
#	29230
#	44545
#	62220
#	75161
#	92999
#	108138
#	119761
#	131910
#	142604
#	156443
#	176406
#	190340
#	212985
#	228900
#	247693
#	265955
#	284556
#	297733
#	311186
#
# Disc length: 4427 seconds
#
# Revision: 2
# Processed by: cddbd v1.5.2PL0 Copyright (c) Steve Scherf et al.
# Submitted via: audiograbber 1.83.01
#
DISCID=41114915
DTITLE=Ready Records - At The Crossing
DYEAR=2008
DGENRE=Country
TTITLE0=At The Crossing  - Kim Golembeski And Donnie Summer
TTITLE1=They Prayed Me Through - The Freedom Trio
TTITLE2=I았e Still Got It  - Marvin Morrow
TTITLE3=My Heart Is In Your Hands  - Billy Hale
TTITLE4=When I Got Saved  - Bill Townsend
TTITLE5=Sin Died Here  - Janice Smith
TTITLE6=I앐 My Mama압 Daghter  - Arlene Varney
TTITLE7=What압 Your Reason  - Sheila Reed
TTITLE8=Were You There  - Tommy Overstreet
TTITLE9=I Hope You See Him In Me  - Patricia Gentry
TTITLE10=Come And Dine  - Peggy Inks
TTITLE11=Just A Closer Walk  - The Piearcys
TTITLE12=Man압 Mark In Heaven  - Jim Watson
TTITLE13=Forever In His Hands  - Latter Rain
TTITLE14=Right Here Right Now  - Siara Sol
TTITLE15=Three Lost Soul - Richard Draime
TTITLE16=God Bless Our Homeland  - Kevin Hall
TTITLE17=The Shinning Light In My Window  - Livzy Reed
TTITLE18=Litte Bitty Sin  - Pat Cole
TTITLE19=Belive In Your Self  - Barbara Dee
TTITLE20=Embrace The World  - Marvell and Friends
EXTD=
EXTT0=
EXTT1=
EXTT2=
EXTT3=
EXTT4=
EXTT5=
EXTT6=
EXTT7=
EXTT8=
EXTT9=
EXTT10=
EXTT11=
EXTT12=
EXTT13=
EXTT14=
EXTT15=
EXTT16=
EXTT17=
EXTT18=
EXTT19=
EXTT20=
PLAYORDER=
